<svg enable-background="new 0 0 32 32" height="512" viewBox="0 0 32 32" width="512" xmlns="http://www.w3.org/2000/svg"><path d="m26 32h-20c-3.314 0-6-2.686-6-6v-20c0-3.314 2.686-6 6-6h20c3.314 0 6 2.686 6 6v20c0 3.314-2.686 6-6 6z" fill="#e3f8fa"/><path d="m15.333 24c1.207 0 2.217-.86 2.449-2h-4.899c.233 1.14 1.243 2 2.45 2z" fill="#8ce1eb"/><path d="m20.008 16c-.003 0-.005 0-.008 0-2.573 0-4.667-2.093-4.667-4.667 0-.707.163-1.376.446-1.978-.147-.014-.295-.023-.446-.023-2.577 0-4.667 2.089-4.667 4.667v1.859c0 1.319-.578 2.564-1.592 3.422-.338.289-.488.749-.367 1.197.143.523.658.856 1.2.856h10.85c.568 0 1.104-.368 1.219-.924.089-.43-.064-.861-.398-1.141-.97-.814-1.53-2.008-1.57-3.268z" fill="#26c6da"/><circle cx="20" cy="11.333" fill="#8ce1eb" r="3.333"/></svg>